<mxfile host="app.diagrams.net" modified="2023-06-26T09:14:23.788Z" agent="Mozilla/5.0 (Windows NT 10.0; Win64; x64; rv:109.0) Gecko/20100101 Firefox/114.0" etag="J6Eefzex1dryMWdo2guK" version="21.5.0" type="google">
  <diagram name="Page-1" id="vMaOTH4KGBYCCnR0Cmuy">
    <mxGraphModel grid="1" page="1" gridSize="10" guides="0" tooltips="1" connect="1" arrows="1" fold="1" pageScale="1" pageWidth="827" pageHeight="1169" math="0" shadow="0">
      <root>
        <mxCell id="0" />
        <mxCell id="1" parent="0" />
        <mxCell id="3DQ5oPm4Rt5BJ94Q-m3X-1" value="📥Nouveaux courriers du service&lt;br&gt;&lt;i&gt;&lt;br&gt;&lt;/i&gt;" style="rounded=0;whiteSpace=wrap;html=1;" vertex="1" parent="1">
          <mxGeometry x="260" y="280" width="200" height="60" as="geometry" />
        </mxCell>
        <mxCell id="3DQ5oPm4Rt5BJ94Q-m3X-2" value="📝Mes courriers à traiter&lt;br&gt;&lt;i&gt;&lt;br&gt;&lt;/i&gt;" style="rounded=0;whiteSpace=wrap;html=1;" vertex="1" parent="1">
          <mxGeometry x="260" y="450" width="200" height="60" as="geometry" />
        </mxCell>
        <mxCell id="3DQ5oPm4Rt5BJ94Q-m3X-3" value="🖋 Courriers du service en cours de signature&lt;div&gt;&lt;i&gt;&lt;br&gt;&lt;/i&gt;&lt;/div&gt;" style="rounded=0;whiteSpace=wrap;html=1;" vertex="1" parent="1">
          <mxGeometry x="260" y="590" width="200" height="60" as="geometry" />
        </mxCell>
        <mxCell id="3DQ5oPm4Rt5BJ94Q-m3X-4" value="✅Courriers du service signées" style="rounded=0;whiteSpace=wrap;html=1;" vertex="1" parent="1">
          <mxGeometry x="260" y="720" width="200" height="60" as="geometry" />
        </mxCell>
        <mxCell id="3DQ5oPm4Rt5BJ94Q-m3X-5" value="Clôturer" style="endArrow=classic;html=1;rounded=0;exitX=0.5;exitY=1;exitDx=0;exitDy=0;" edge="1" parent="1" source="3DQ5oPm4Rt5BJ94Q-m3X-4">
          <mxGeometry width="50" height="50" relative="1" as="geometry">
            <mxPoint x="290" y="590" as="sourcePoint" />
            <mxPoint x="360" y="890" as="targetPoint" />
          </mxGeometry>
        </mxCell>
        <mxCell id="3DQ5oPm4Rt5BJ94Q-m3X-6" value="Courriers scannés par le service courrier" style="endArrow=classic;html=1;rounded=0;entryX=0.5;entryY=-0.167;entryDx=0;entryDy=0;entryPerimeter=0;" edge="1" parent="1" target="3DQ5oPm4Rt5BJ94Q-m3X-1">
          <mxGeometry width="50" height="50" relative="1" as="geometry">
            <mxPoint x="360" y="180" as="sourcePoint" />
            <mxPoint x="340" y="270" as="targetPoint" />
          </mxGeometry>
        </mxCell>
        <mxCell id="3DQ5oPm4Rt5BJ94Q-m3X-7" value="Renvoyer au service courrier" style="endArrow=classic;html=1;rounded=0;exitX=0;exitY=0.5;exitDx=0;exitDy=0;" edge="1" parent="1" source="3DQ5oPm4Rt5BJ94Q-m3X-1">
          <mxGeometry x="0.6" width="50" height="50" relative="1" as="geometry">
            <mxPoint x="370" y="190" as="sourcePoint" />
            <mxPoint x="170" y="250" as="targetPoint" />
            <Array as="points">
              <mxPoint x="170" y="310" />
              <mxPoint x="170" y="280" />
            </Array>
            <mxPoint as="offset" />
          </mxGeometry>
        </mxCell>
        <mxCell id="3DQ5oPm4Rt5BJ94Q-m3X-9" value="&lt;div&gt;&lt;b&gt;Utilisateur&lt;/b&gt; : M&#39;attribuer le courrier&lt;/div&gt;&lt;div&gt;&lt;b&gt;Manager &lt;/b&gt;: M&#39;attribuer le courrier / Attribuer à un utilisateur&lt;br&gt;&lt;/div&gt;" style="endArrow=classic;html=1;rounded=0;entryX=0.5;entryY=0;entryDx=0;entryDy=0;exitX=0.5;exitY=1;exitDx=0;exitDy=0;" edge="1" parent="1" source="3DQ5oPm4Rt5BJ94Q-m3X-1" target="3DQ5oPm4Rt5BJ94Q-m3X-2">
          <mxGeometry width="50" height="50" relative="1" as="geometry">
            <mxPoint x="359.5" y="360" as="sourcePoint" />
            <mxPoint x="359.5" y="450" as="targetPoint" />
          </mxGeometry>
        </mxCell>
        <mxCell id="3DQ5oPm4Rt5BJ94Q-m3X-10" value="&lt;div&gt;&lt;b&gt;Groupe Viseur&lt;/b&gt;&lt;/div&gt;" style="text;html=1;align=center;verticalAlign=middle;resizable=0;points=[];autosize=1;strokeColor=#d6b656;fillColor=#fff2cc;gradientColor=#ffd966;" vertex="1" parent="1">
          <mxGeometry x="612" y="450" width="110" height="30" as="geometry" />
        </mxCell>
        <mxCell id="3DQ5oPm4Rt5BJ94Q-m3X-11" value="Courrier à viser (viseur 1)" style="rounded=0;whiteSpace=wrap;html=1;fillColor=#fff2cc;gradientColor=#ffd966;strokeColor=#d6b656;" vertex="1" parent="1">
          <mxGeometry x="567" y="510" width="200" height="60" as="geometry" />
        </mxCell>
        <mxCell id="3DQ5oPm4Rt5BJ94Q-m3X-12" value="Courrier à viser (viseur 2)" style="rounded=0;whiteSpace=wrap;html=1;fillColor=#fff2cc;gradientColor=#ffd966;strokeColor=#d6b656;" vertex="1" parent="1">
          <mxGeometry x="567" y="610" width="200" height="60" as="geometry" />
        </mxCell>
        <mxCell id="3DQ5oPm4Rt5BJ94Q-m3X-14" value="FAST pour signature" style="rounded=0;whiteSpace=wrap;html=1;fillColor=#fff2cc;gradientColor=#ffd966;strokeColor=#d6b656;" vertex="1" parent="1">
          <mxGeometry x="567" y="720" width="200" height="60" as="geometry" />
        </mxCell>
        <mxCell id="3DQ5oPm4Rt5BJ94Q-m3X-15" value="&lt;b&gt;Utilisateur &lt;/b&gt;:&lt;b&gt; &lt;/b&gt;Envoyer pour paraphe" style="endArrow=classic;html=1;rounded=0;exitX=0.5;exitY=1;exitDx=0;exitDy=0;entryX=0.5;entryY=0;entryDx=0;entryDy=0;" edge="1" parent="1" source="3DQ5oPm4Rt5BJ94Q-m3X-2" target="3DQ5oPm4Rt5BJ94Q-m3X-3">
          <mxGeometry x="0.25" width="50" height="50" relative="1" as="geometry">
            <mxPoint x="520" y="500" as="sourcePoint" />
            <mxPoint x="570" y="450" as="targetPoint" />
            <mxPoint as="offset" />
          </mxGeometry>
        </mxCell>
        <mxCell id="3DQ5oPm4Rt5BJ94Q-m3X-17" value="" style="endArrow=classic;html=1;rounded=0;exitX=0.5;exitY=1;exitDx=0;exitDy=0;entryX=0.5;entryY=0;entryDx=0;entryDy=0;" edge="1" parent="1" source="3DQ5oPm4Rt5BJ94Q-m3X-3" target="3DQ5oPm4Rt5BJ94Q-m3X-4">
          <mxGeometry width="50" height="50" relative="1" as="geometry">
            <mxPoint x="410" y="760" as="sourcePoint" />
            <mxPoint x="460" y="710" as="targetPoint" />
            <Array as="points">
              <mxPoint x="360" y="690" />
            </Array>
          </mxGeometry>
        </mxCell>
        <mxCell id="3DQ5oPm4Rt5BJ94Q-m3X-18" value="Viser &amp;amp; poursuivre le circuit" style="endArrow=classic;html=1;rounded=0;exitX=0.5;exitY=1;exitDx=0;exitDy=0;" edge="1" parent="1" source="3DQ5oPm4Rt5BJ94Q-m3X-11" target="3DQ5oPm4Rt5BJ94Q-m3X-12">
          <mxGeometry width="50" height="50" relative="1" as="geometry">
            <mxPoint x="522" y="650" as="sourcePoint" />
            <mxPoint x="522" y="740" as="targetPoint" />
            <Array as="points" />
          </mxGeometry>
        </mxCell>
        <mxCell id="3DQ5oPm4Rt5BJ94Q-m3X-21" value="Transmetttre à fast" style="endArrow=classic;html=1;rounded=0;exitX=0.5;exitY=1;exitDx=0;exitDy=0;" edge="1" parent="1" source="3DQ5oPm4Rt5BJ94Q-m3X-12">
          <mxGeometry x="-0.2" width="50" height="50" relative="1" as="geometry">
            <mxPoint x="697" y="600" as="sourcePoint" />
            <mxPoint x="667" y="720" as="targetPoint" />
            <Array as="points" />
            <mxPoint as="offset" />
          </mxGeometry>
        </mxCell>
        <mxCell id="3DQ5oPm4Rt5BJ94Q-m3X-23" value="" style="endArrow=classic;html=1;rounded=0;exitX=0;exitY=0.5;exitDx=0;exitDy=0;entryX=1;entryY=0.5;entryDx=0;entryDy=0;" edge="1" parent="1" source="3DQ5oPm4Rt5BJ94Q-m3X-14" target="3DQ5oPm4Rt5BJ94Q-m3X-4">
          <mxGeometry y="-10" width="50" height="50" relative="1" as="geometry">
            <mxPoint x="457" y="910" as="sourcePoint" />
            <mxPoint x="507" y="860" as="targetPoint" />
            <mxPoint as="offset" />
          </mxGeometry>
        </mxCell>
        <mxCell id="3DQ5oPm4Rt5BJ94Q-m3X-24" value="❌Courriers du service parapheur rejetées" style="rounded=0;whiteSpace=wrap;html=1;" vertex="1" parent="1">
          <mxGeometry x="30" y="720" width="200" height="60" as="geometry" />
        </mxCell>
        <mxCell id="3DQ5oPm4Rt5BJ94Q-m3X-25" value="" style="endArrow=classic;html=1;rounded=0;exitX=0.5;exitY=1;exitDx=0;exitDy=0;entryX=0.5;entryY=1;entryDx=0;entryDy=0;" edge="1" parent="1" source="3DQ5oPm4Rt5BJ94Q-m3X-14">
          <mxGeometry y="-10" width="50" height="50" relative="1" as="geometry">
            <mxPoint x="597" y="760" as="sourcePoint" />
            <mxPoint x="130" y="780" as="targetPoint" />
            <mxPoint as="offset" />
            <Array as="points">
              <mxPoint x="667" y="990" />
              <mxPoint x="400" y="990" />
              <mxPoint x="130" y="990" />
            </Array>
          </mxGeometry>
        </mxCell>
        <mxCell id="3DQ5oPm4Rt5BJ94Q-m3X-26" value="&lt;div&gt;&lt;b&gt;Utilisateur &lt;/b&gt;: Envoyer pour paraphe&lt;/div&gt;" style="endArrow=classic;html=1;rounded=0;exitX=0.5;exitY=0;exitDx=0;exitDy=0;entryX=0;entryY=0.5;entryDx=0;entryDy=0;" edge="1" parent="1" source="3DQ5oPm4Rt5BJ94Q-m3X-24" target="3DQ5oPm4Rt5BJ94Q-m3X-11">
          <mxGeometry x="-0.5714" width="50" height="50" relative="1" as="geometry">
            <mxPoint x="290" y="570" as="sourcePoint" />
            <mxPoint x="280" y="450" as="targetPoint" />
            <Array as="points">
              <mxPoint x="130" y="540" />
            </Array>
            <mxPoint y="1" as="offset" />
          </mxGeometry>
        </mxCell>
        <mxCell id="3DQ5oPm4Rt5BJ94Q-m3X-30" value="" style="endArrow=none;html=1;rounded=0;entryX=1;entryY=0.5;entryDx=0;entryDy=0;" edge="1" parent="1" target="3DQ5oPm4Rt5BJ94Q-m3X-12">
          <mxGeometry width="50" height="50" relative="1" as="geometry">
            <mxPoint x="667" y="990" as="sourcePoint" />
            <mxPoint x="487" y="680" as="targetPoint" />
            <Array as="points">
              <mxPoint x="790" y="990" />
              <mxPoint x="790" y="860" />
              <mxPoint x="790" y="790" />
              <mxPoint x="790" y="640" />
            </Array>
          </mxGeometry>
        </mxCell>
        <mxCell id="3DQ5oPm4Rt5BJ94Q-m3X-32" value="" style="endArrow=none;html=1;rounded=0;entryX=1;entryY=0.5;entryDx=0;entryDy=0;" edge="1" parent="1" target="3DQ5oPm4Rt5BJ94Q-m3X-11">
          <mxGeometry width="50" height="50" relative="1" as="geometry">
            <mxPoint x="790" y="640" as="sourcePoint" />
            <mxPoint x="847" y="560" as="targetPoint" />
            <Array as="points">
              <mxPoint x="790" y="540" />
            </Array>
          </mxGeometry>
        </mxCell>
        <mxCell id="3DQ5oPm4Rt5BJ94Q-m3X-33" value="Workflow Collaboratif des courriers " style="rounded=0;whiteSpace=wrap;html=1;" vertex="1" parent="1">
          <mxGeometry width="820" height="140" as="geometry" />
        </mxCell>
        <mxCell id="3DQ5oPm4Rt5BJ94Q-m3X-34" value="" style="shape=image;verticalLabelPosition=bottom;labelBackgroundColor=default;verticalAlign=top;aspect=fixed;imageAspect=0;image=data:image/png,iVBORw0KGgoAAAANSUhEUgAAAWgAAAG4CAYAAABo2336AABKCUlEQVR42u2dC9xWU/bH366631RqojsKEgBViDQECYBIZJhXSQYZIQyMRMNEEmImUvhnwosHCsiAMAiGmBBIRIjqv/Zz1svpvOeyr+e5nN/6fH4feJ9n7XPZ+/ucs/daa1dUVFatgyAIgopQuAgQBEEANARBEARAQxAElSegHyC1gCAIglLTH2UBPbcCBoPBYOlZZdVwABoGg8EAaBgMBoMB0DAYDAZAw2AwGAyAhsFgMAAagIbBYDAAGgaDwWAANAwGgwHQMBgMBgOgYTAYDIAGoGEwGAyAhsFgMBgADYPBYAA0DAaDwQBoGAwGA6BhMBgMBkDDYDAYAA1Aw8rFcnf9qSeuAgyAhsGKE9DjSRvgSsAAaBis+AA9k7QjrgQMgIbB1OC5bQptvEA6JeXz6oW7CwOgYaUO6MkptPE16aYUz2lr0nDcXRgADSt1QH9GquvQ/4akdaSXUzynKwFoGAANKwdAC3ju59D/rtzGz2ksFFIbtUkfA9AwABpWLoC+06H/47kNoe1SOJ+B3BYADQOgYWUB6B9IzRz5v8QH6JEpnM9tADQMgIa5AswGpO4pA1roBEf+Z/namOr4XBqTvgOgYQA0zCVori4AoJ9w5P8lXxsvOD6XY3xtDU/h2jVAbwWgAejsAVo8df4+ZUCvJW3iwP83vjZ+ItVzeC4Ppwzo49BbAWgAOnuAPov0lkuYhQBa6FzLvtsE/DtbKCS/7Ulr0gI0+e8oMiTRWwFoADp7gB7AkDkjZUC/adl3nxBAj3R0HmcG2nENaJG+PgG9FYAGoLMH6OYMmRWktikCWmh7i76PD/E/1dF5LEoL0OR7F27jEPRWABqAziak32UI3JgyoCdb9H1JiP8XHJzD1iHtDHd0vWqRnuU2NkNPBaAB6GwCepZv8W5bh+0EwWYt9TsQYudsoZBTu9MC9FHsfxWpDnoqAA1AZxPQZ/lg86R4cksJ0NZSvwMhdk4WCn2p3c4BTT4bkpakETIIA6BhxQ3oAQHgHJkioO+05PubCP8jLR7/wIg2XAD6zz7/t6CXAtAAdPGBs15K7TTl6Y1qIHxEapQSoI1TvyNC7KwvFPpSu50Cmvy1I630+R+D0QBAA9DFB2iRij0ipbYWB6AzISVAG6d+R4TYWV0oDKR2uwb09ID/vTAaAGgAujghPTWNTD+OtQ0+2XZKCdBPGPodHuPbykJhILXbGaDJV+/A28w61+GP3G4PLEQC0DD1gbMnxyhv7ridsSHguSslQBulftN3L43xbWWhMJDa7RLQjwcjXVLoY61J12G0AdAw9cFTHTnwNqmFw3b6R8Bn9xQAbZT6Td+dk+B7pOFxB1O7nQCa/AwJ8f2o4/5VjzSfNAyjDYCG6Q2iq3iwPuTqNTRkobBai2y1mQDRNw38vpLge6rhcZ+Z4H+4hWtTn/ROiO9rHPetKTwN1BwjDYCG6Q2i7XwD9mqH7SyOANAplvyvS9D2mn5XJvh9wfC4F6UA6DNcLKAmtPkHbmMeRhkADbMHT1cF72dGQOILUssUAD1Zw2c7Cb/aC4URqd1WAc2b3X5t80dLos1+pNXcBqY3AGiY4YA6PwCc3Ry0MdYmPDUArZz6zaBZJ6HtNI/5yhQAfV2EXzHv3dDBfe7E13odpjcAaJidQdUtMHiX2S56H7NQKPQLaQvHgFZO/RZvE5J+R2ocb1RqtzVA03d78rUN8/u2g37UiPSyrw1MbwDQMEuDa2FgAL9sM+MvZqGwWg+nAOg7FX1eKul3qsbxDpT0bQLoB2L83m25/9QKKSqF6Q0AGmZpgI0Oi1W2WdwoZqGwWgc5BrRS6rdEiJ32QmFMarcVQNP3BiX4vdBy/zk3ZG4e0xsANMzSANsoIh53vMU2ZiZA4z2Rgu4Q0EqLoBIhdloLhQmp3caAFnPtpNcT/B5s8b4eEPJ2hOkNABpmGdIPRQzmIZb8j5UA0jmOAf2Egs+VCn63VfB7jIJfHUCfKuG3u6V7Kua5vw3xj+kNABpmGdDHRQxm8bTXy4L//hLgEFBs7xDQUqnfkiF2fo1QONaHXQGatxn7PMHn92KR0sL9bOnbMQfTGwA0zDGgm/I8bdigFgXeW1vwv1YCSjMcAloq9VshxK5aUySPMym12xTQMqF7/7bQV+rE/NBgegOAhjmC9F0xA3uBSBs29L9YEkw7OwT0mxL+TlD0uVDyOM9U9Dtc4Rp05afXJJ83W+gnk2L8Y3oDgM4MMLdJub2DHNeemCkLPJUIEkXoJWbR0d8vV/T3g0wijERqtwmg75b0ebqjqTBMbwDQmQP01lx0pm5K7YlC/ssTBnilgf+xCnA63iGgJyf4u0fDZ6+kH1sNn8Mlz7+/gs89De7fTqQfY3zPK9A4qQdaANCFgvTfSbm0nkyonWkJA1xkpw3Q9K0Ckk/EvLUjQMemftPfXtXwOSLhGCe6ADRnJb6o4LO15r1rz/dkXbFMb/ADxei0HmAAaFhYJ2zFT7Vvkrqk0N4eEoP8K5EiruG7seIi2eWOAB2b+s2RDutsLRTyotonjgA9XMHfpwYgfF4iHrx5iuNC/GA8Q9oBlACgCw3pSh4EIoRqV8dtiSeypRKD/Q3ZJ9yA/zcUgPKTzA+BJqDvjPDVQdPfwpjj20fT53CJH7yPFfw9otknZDIf56U4HnbiH7xrQAcAuhgA7c8OE3OARzpuT/Z1fJ5qTC19/nZFSM11BOjQ1G+x04uBv7oRx/cPR4C+WNHfJI2+cIak72EpjYVhPAbEDvFNQAcAulggvVdgQJxns1ZGoK1tFQb9FYq+R2uAah8HgA5N/ab/d6KBv14h/poopHZLA5r+tjFplauoEG5joOSUlPPpDZ4musrX5mBQAYAuNkjfGxgYt5vGJse09abCwD9awW8fDVC9kbCopwvUJ0J8XWHgb0TEE986B4DWeSrfTuE+dZeI6ElleoOzFh92tekwAA1A2+qoXULCnJ4UO2c4aOs8xdf7HSX9qi4UVmu0A0DXSP3WDLGLXCgU8762Ac1zsKq+xDVvIHmPmin+QA9z2Od7BvZUFDvRtwMNAOhihfRlIQNEdODNLbfTVREAH8vW0VBcKKzW11EhYgYArJH6rRliF7pQSP/9O80fo0hAc+3lpzV8LZa8N2KR+F+KC7nNHfX1/UOKMZ0MCgDQxQzoJhEr9+J1dHfLbT2nCIHnZZ7SNBYKq3WDA0C/GfD1vYGv9RYK6d/PMjy2MEAfoelrtuQ9v1TR7zwHfbwW15heE/K2WAsUAKCLHdLHRgyW1TZ2gva1c5oGCP4p4Xe0JmTWhKW/G0Lw19RvgxC70IVCw6fxGoAWP36kDzR9nS9xXw7X8DvMct8WW2fdGfGk3hOjH4AuBUDXSni6vczGkwb5aBuzr12czk7w28cAWvMdAHoy+9ndgq8R7GsbC76CgD7XwNeQhHvSWyMqxOr0BvnqGNjX0K8JGPkAdClBeqeE8p2zbezcHFPIP+lJd3CMz8aGc7OHWwb0ZxxrfqIFX1P4mCbaBDTvevOtga+uCT/EH2r4nGexP/f17Qge1Fu6u+3AAOhCQnqGRFW4jQzb0A0T+ybulVRzodBfn7qhRUDnU78NQ+z811w3tTsO0DcZ+Pku6o1KhGny3O66Qk1viJ3ReXouqp3+GO0AdCkCup3EU5WA2ZYGbTSJKeSfJLHjRqsIv7cbwusCy4C+MyTOXHehcD9LxzScz6+X4RtHXBr6VE2fxtMbogodV2uMa2caRjoAXcqQPkfyaXaQQRuzDODwqHiiDPE52hBeq6pjmC3B8AeDBbigXrEM6EcN/dwUcV9PNfA5z7DfbigShRLaWEZqgVEOQJcyoOvzjthJA0os9p2q2caBhoC4NsRnHxtPvRYBXYwabuHahyb58ILoagOfwwz6bC9+s0tq4wiMcADaJizb6Gx6aqFdlUF8ddgTrcSr6HJDSIy0vFBYrX5lDGgxN/u2BT97BK59J9IXBv60pzfoe4dI1ia5H0QFoF3A8i+kUaoQtNCuym7RIlOssaL/qYaQEE9r/SwuFFbr5TIGtK1z2zDww7jI0N88jf4pQkMvUljU7AiiAtAuQFmX5wzF4NopxXZ7KsYsi+ProOC/vwVQiHrWnSwuFEISO9MEIDnHgs9hin1TLDT/n4L/M0BTANolLFvxvLCIU74+rYUOkXChUT9jW0nftbkGr+ngXlT99G5hoRBK1kO+ezjegj+l6Q2u6fK6gv8X03779D3gNAKgM7JISDd7C18I3Gecnl3LcZstNeYWRe2JAyX9/9USNO7hp7k+AKhzTbS00Ks8vSH2ruTt0WR9/yL7wGBxzIiCVtNVNikGoMsH0vsHFsIeJ/Vw3OYpmpl/YyV8b2MRHBdx3YVfAFGnOk7EwZNWWvI3TLIfjta4txNTHJtNSZdwuOYETHFkNMyObv64kMWyS22kYUe0V8egSM8NSTskW1rYq9ahpNcAUacaIBmGaWV6g8M+p2v4/iCNKQZeI6r0pZXfgjnobANavMrPDOmQ77vatsew6M/DcYOQ/vZni/AQ0ysvAaLOJNZAnrLob15CvxOZrc9q+v59CmPx4EDY4kNJDyQAdDYg3ZD0Qsx87CYO2pxtMBDFU3LnCL9dAL7MalhMf9uB9D9NvzMdj79dQjY5eDlzm84C0LGdRNQa/jSig4r5wT/Z/DUXgDWooVG9sLlzhO9nAavMKXJ6Q+xJadDXxCJiW0djrltEWOEHmdw2C4BO7DA7h+wp6JeYj93NYnsXW6hPcXiI30oAK3OaF7HeYRrZM8LBOGtN+ltEKvtXrhfqAejShvRxMsVtbGwEy1ES/7MwOP8c8CtS2n8GtLI7vSFi+0kPGPp8wmboKU8lnsMby0Y9cPTNKnsAaPmOJFPM/UvSCaYdmL5/lKUBKmpP1/f5fRDQyub0htigWGxCa+hTvEluZmk81eYHn/8lhJIemmXuANDyHaqOAuDE4sZWhlEkT1saqAuq6zvTP48BuLI3vUH/vm/ME6qKxlsaS3tL1hY5vSLrBkArdazmCk8hYjrhStUCR762tkvYHktFIkxpM66v8D3glZ3pDd6l3EYFQhElVM9w/PRS2I5tUgUMgNboZAJ0Xyt07I+SNv+MaWu6xQH7FRdPuhPwysT0RruIWH7d2OzdDMaMiIa6ReGBY7brEgsAdHlDeh+Np5J5UXHKMe205Z1VbA3c1Yax1lDplDx9waK/GzTHSTPOwFUJ53sSm80C0DYgfYbmlk/nqrwq0mfPBHCgQpY+FaBVHBtis4jTNIqAvYntsgBom5C+VbPTi464u2Qb9S3t0AFBOhqqOCbE7ivvaP4QoOA/AG0V0PUNM/Ruk8nIsrjjNASp6D6FsbAb6RnNdkSJ394gCgDtAtLtDBNLxL6BfxBxoQntIIYZSlMCmhtL9P9NSXcbrovsA5IA0C4hvR3PL5sMiIVxTxGcaLAa4IBS0qiEPi8yU6+z0CePB0EA6DQgfaSFQfELb4HVLKKNSQAHlIKej3qj49TsP1uKLhoPcpQ5oOkmDySdKHZbKIJjudTSABH7Dh4W4r85b+IKiECuJBKseoX0PZGaPZy01FI700DfjDxBC5gxuGZwMkatAh2HSNG+z+JgEYX4uwXaOAkQgRzq8pB+vY/Bjj9heqAQm8wGzmkzlY10AWjzC74t6UPuAO/ya1iHAhyH2DftPxY7syhQc0F18D4/ybwMkEAO9J5/Wzfez/IRy228kCvQTtw8bz6Kk2GOwhN0+jdgo0CRoTUc/XCov6pbCsfRRXFnZBmJ2NK92X9fwARyoOr+tQm/ja617P+/rgr9x4zFDfgN+z6evhFv2n0wxVE4SIvY5JsjSoH+LWx+zdFx7Omo/vIdpPaoqQFZ1u28xnG54a4+UfrCVqlSyanGfmKeO1DF7y3x8IQ56OIA9ekx9TJe5B1GWjg+hj86Gkzf8K4YPwEskKX+dBE/xLjwv8rmrkMJ88qX8PZYwWPIlWQaeTmH2XGEx9cJ87t3cn3a2o6OYSoAAGVYa3SrOUqOrw35Yev5hN2O6lWUopV7HDRnOsnUcP6QnyI6O5hyWYCBCmVUlY7mlUXNj7kJiTJiDv0shNkVP6SbK+zFJm7qY7z7SENL7YsNMZdgsEIZ018tzyv3Id0oWY9dTKscXFHqlpVMQt6yaqJiBxMLDDeQdrTQvthN4jsMWigjusNGPgK/AYs32/cV2v6UtH1FOVjWUr3FVkA896za4V7nGtBtDNo+GAMXyoAeNwlrpe+2Ip1Kek6jbbHX4SYV5WJZrMVBN3AX/pXVrb51D2l/nWwoTjrBIIbKVa/rZOjxvLJ4gPk/g+ik+4uh5AMAbQfSHTjcznS3iStU4jt5Lm0OBjJUhloqU6I0MBZ242nE5YZtX1fo9HEA2j6kG/JcmY3O+RRpBKmJRLuNSK9gQENlFkvdS3LcdSdN4NRyG2F8lRXlalkvN8q/4udaTGtdmfN2MO6b0G4n0mcY2FAZSEz77ZXQ31vyxhTPWmxXbCqwX0U5G+pB/9qBDmC42q6fMU6kZke02RdF+KEy0DExOQBDeM3GdtbrR2mVbQCgiwfSW3JBF9sd+BdewBgazGhC+VCoxDUuZBztSrreQcEwf0W8dhVZMAC6RufakMOEXHVoUTTmatJWvjavxUCHSlDX+/pwV9KFXOrXZZv3FqpcKQBdPJCuR5qSQgf/N+kUjvt8FAMeKiHN5YeZk3mBPJXMxEJtxgFAFyeoT0lpjvgHrlu9BgMfKgH9xKUT0qqmKMbgSRVZNAA6EdK7OyzDCEFQvL5OihABoDO+q7eocEd6DYMFglKVqL/RoyLLBkBLQ7oJz7th4ECQe4mt61pXZN0AaCVI1+IdGzCAIMhtJbwNKmAAtCaoj+B6sxhMEGRXEzIXqVFqgM5526N3LnJIb8fZTBhUEGQnMuQYELk0AC2mEo7NebvwLsx5e4qNyXl7B7YrIki3s1xbAIKyqC+TatcA0EU4xUE3rTHpspAC+6I04XxOJhE7Z/cXyR4FgrSoN3ArBhkEaUnsF9q1SNebRPTWYK6nIwo9NQOgwy9WF07xTLrZH+e87dWv4dKfu8iU/7R0jGcg0QSClCT2/mxZJG/Ce/Nb+nR+a/+Wj/FtUUMHT9ByF3IA79ig2hGWcLEiUVxfbHnVm9TAwfENysltaAlBWdfNOYNtsTTHZ0t+2z6V377nx2wUIEoBV5LqYopD7SLX5QtnugPDGv51FE/mF5MO42p29QyPb3N+bcMghKBwnZNCzsKO/BYtCpM9wm/XMsf2PYfSNikG3pVsmB0XGPo7l/K0nfcvsgbvJJ3H9Wy7kWorHFsL0kMYiBC0nkRo6iGW13+2EdEfvFb1r5za7t/BksA3RdVuB6D1b9LWPJeVRud6iTSDdBZpX1LHmOOqQ5qEQQlBeS0TT7UGb809uJ66iJOewxFeth7O5om3Z0RxuAX1wQa/niYSe7E9w7++o3mefCPfcR2fYtUvCCpGvRb3MBMSOXEAR078k7QoJIrLZuH/3RFmlx6kG5D+TPquCDrlF7wIIYrx34ZBCmVUVWHhaWIqgTSQIydu4ciJtMbt+5wNXPwZi+WY6k0XvgPpHxgcEFRQTeGs4P6cryD+e4GFBX6ThJgxaUePANDRoBZ7o/0bAwWCUtdqhciJNDbEELuxtEAmYfFBujZpOC9SYOBAUHa0lqcXN6koVctKNTu6SU35V3Q1Oi4Elb0eFiF4FaVuWSs3SjetO8dLohNDUPlJRH0MrCgXy2o9aE7LfgsdGoLKQh9xGYfa5cSpTBfs5wD4MaifAUElqxWks0kNK8rRsKPKrxsETEU1OggqqSgRUWdjw4pyNgB6PVD35jhNDAAIKl7dWYw1pAHo9EB9OOlDDAQIKiqJzNwdKrJkAHQkpBuSLsxhc1gIKrT+Q9q/IosGQCeCehN+pcJAgaB09QnppFyhi+YD0CUB6n6klzFoIMi5VpLOJzWqyLoB0EqQFmnjI0mfYxBBkHWJ+s5iE462FTAA2gDUzTnE52cMKgiyontIm4EuALRNUG/O9W4xwCBIT2Kziz6gCQDtEtSDSe9gsEGQtMR4GQp6FCmgc94O2r3LSDvlvC16MPggKH6eWWwPt0OZjf/Nyg3QG5JOIT2FTgtBUInWmxbJMyeKdamyneKgk+uY8zaJfB03HYKgIpeogin2Pu2UuTloOumtSVcg1RqCoCKS2ARabAC9IxYJK37dgr0fV5n7Ch0EgqCU9SNpNukAUj1EcUTDuh5fpFmojQFBkGMt4IS05hWFtlILs6OL1oR0LOkhXhFGh4IgyFRvk84jdUaYnT1YtyWdRnoOHQyCIEV9SZoiQmQRB+0e1t1I43PYZxCCoGj9RJpDOqhg88pZzySkC78t6SrSx+iQEARxvsXJpBbIJCweUIvqc3uSpue8zSXRUSEoW+nkomxpF6R6Fz+sNyAdzK83P6LzQlBZSoTkXk/aFbU4ShfWolzoCaRcDjt5Q1A5zCuLcqVDSPVRLKm8KtG1J51BegEdHYJKrlTpH0gtUc0uA+VGRUUq0gTSu+j8EFSUei/nbebctSILBkBHwlqUD51M+hSDAoIKquWkG0i7iRIQWeIQAJ0M6jqkfUgzSN9gsEBQavPK/8cL+xtUZNUAaCVYNyQdTprLHQgDCYLs6lnSqaRWFTAA2gDWLbmgygIMKggy0hLSRaTuIAsArQtkUf60c87bf/AsnvIQkR/fYYBBkJFE0bM3SXdxuQaRht0lc/PNADRADEElpJVcCG0aaRRpj8xNfWQV0AAxBJWsPuZywxNJw3Lepq31AejShXFHgBiCyn6a5I2ct6mHqOt8ID+A1QKgiwvEvyeNJd1CWkj6Fp0XgjKrbzky5MacVzt+95LKPCxFQAPEEAQZaimpinRlUU+TFDOgAWIIgjI9TVIMgAaIIQjCNEmBAQ0QQxCEaZIiBDTC2iAIKjN9SHqAw/2OI20nykGU1RQHwA1BUJFrGelxrm4pyjvsSmqW6UVCgBuCoJQl9i0Vm8tO5blmkbnYBlEcADcEQenpO2bGDF4PE+tiHRAHDXBDEJSeVpNeI830hc11JdVGogrADUFQOhIbPy8m3Zvztqw7jLQFqS5qcaBYEgRB6UnUjp5HusIX2tYA1exQbhTghqD0JPYCzXHkxAjSLqQmFVkzABrghqACSmwI+yRpCqmS1D+H7a4AaAvAbkX6A3cuDDQI0ps7fpR0CqkdqAJAm0JZbBp7BOm+HDaNhSCbWssxyKeLkhAgMwAtC+U6pEGk23PeFjwYTBDkXs+TxpG6AdAAdBiYxaLEtaTPMFggqKASscznk7YEoDMMaOoAPUgXk97DoICgopSId76UtD0AnQFA043+HelM0kvo/BBUUnqfNInfdmsD0OUD5eakE0mP8eIEOjsElbY+IV1H2lOsGwHQpQflDUiHcDooIjAgqHz1OekmLoJUD4Au7giMvXPe7i3foONCUOb0NekfXCipIQBdHGDegXQ1v/agk0IQVF1mdBbnMjQBoNOFcnfShaS30REhCErQD6S5XHCpOQDtBsrtOPPoeXQ4CII09TPpIQ4caAtAm0G5Gel40iOcy48OBkGQzfogIrprlAjBBaDlIzCGkGbzqwk6EgRBadQHeZbzJDoD0OtDuXbO27RxGq/EosNAEFRIiWS2c0XGcWYBnfN2SJhIWooOAUFQkep1LguxddkDOudt5Cg2dXwTNx6CoCKSyJ9YQfo45223JaLEFpFeJM1nXUXauawALVZLc94OCs+hE0AQ5ItVFkD8lIH4LgPxFR8Q53GI3J05b2cjkTU4mXMfJrDGksaQTiYNJx3N61gH8tSp0Hb8xr5pztstqT2pBalp5qM4ROlAvjjlol1JczDAIChx4U1sb7UZaWMGYosKGIolOZqeEXsVHkP6CIMPgqQlSvoeKsYPKAJAu4JzX9K/MdggSFsLSf1AEwDa9qImpjMgyJ7mphq+BkCXJZhbcAggypVCkH39Qrohhx2+AWhFMNfliJMvMIggKJVIjgtKpuIcAF1QOA8mvYVBA0Gp61MOk6sLQAPQQTD3IuUwSCCo4BIPSAcA0AB0dQnTm1ApD4KKTk+SdgKgMwhouvENSeNJKzEQIKiodRepGwCdAUBzosmxpP+h40NQyWg1p3e3BqDLFNCcaPICOjsElaxE3Y5zcqW4ISwAHQlmkWhyNzo3BJWNxBvw8aTaAHRpJ5pcxa9H6NQQVH56lbQPAF16iSankb5EB4agTEiEyPYGoIsfzvuTFqPDQlAmS5veTuoIQBdnosmjRdJRPsdggTIYZbGsSI5FbDT915KsO11ugOZEk+n861mIzvAB6d6ct4XXYC5M/gAGLJRBXUfaKOftXiKmGKeSnuLIi0Icz1c5b5eV+gB04RJNvkvx9UlMnYhtd84i7UVqFTim7qjjAWVc4uGkach47UAalPO2prqVw13TGrvvk44sic0CSh3QKSWaiDKIr+W8/c9Gk/rkEvYto7/vTVqOAQpB+T0FO0qM5docAnsgv4HO5HHnKupK/CjsDkC7g3O/nLe7rs2b9iPfOPE6dgppR1IDxeMaxVDH4ISg3yrTbW8QhdWTdFjO2xD2Xn57tVUvR2xCuyUAbQ/M3Uj3WLgxou7G06Rrc97Ov71MShuKuS3SNAxGCArVKtJQixxokPM2bB5GuoJ0f87bCVz3LVkUSWsPQJslmkzSfOVZzlEdE3n+qYfNrCPy1ZarbWEgQlD82s3ZjjnRhLQLaQTX68jxE7zM8X1PujhXLJsFlAKg+RVnFK/CylzkZbw48Rfxi03q7Pj4tjH45YagLEo8rdZLmSOtxJxzztsdaQo/UEWtE31GOjVX6M0Cih3QolA36e2YG/0hz0mdz2Ft7VM+voNTXH2GoHLSY8UQm0zH8DvSQNIZpFtIz/vGtGDPwQB0+FPpY4FXI3GxZnFY28BgWFsBokcuwCCDICOJxb6uRRod1pkjSsZxwEDzzANaPAGTbuTQnNs4rK1fUlhbyjevEWk2BhcEWZHYjLlvBawkAN2zmGu7inhO0ssYVBBkVT+RjgaRyyxRJWU478aLBxhQEORGE0oiww+ALjo4n4A60hCUikQG4QagMwAtA+Y6pKsxaCAoVYkEstYANAAdB2eRGPMwBgsE1Ug2SauoUQ8AGoAOg/PmCfHXtrSUE2rOx8CHSqjWsyjbeT3pW8dtfS0qRQLQALQfzoMc16wVK9ZzSPvyFMr2XKcAgx8qFYlNKDqRGnMdm2cd/yCcBEAD0BVcn3aNo44mNrQ83T+3xhsMLMWAh0pQoj839vXlLbj2hau9P/+auQgPAPrXzlWfC4e7eEWbElZqUaxUk57DQIdKWPcEocn9+mjS4w7aE2UdGgHQGQJ0ztuW51nLiyiict5RcbWkeQMADHKo5GOXY/p4dy4FanN/wheKriwoAO0MztuRPrLUcURFuwvF3JzkVAoGN1QuOiShv9cTnyE9aCkKRIzZXgB0GQOabvDhFhbnfuTA+r1k60vzIuQaDGqojCTqKG8j2f87ccag6TZ1YsON/QDoMgM0V6q62LBzvMj1Ylsotr05z0tjUEPlJvEG2VZhLIgIpv1Ic3P6W8SJB53TAOgyATTvtnCvZmcQq9PX6L5aceLLYgxkqIwliuDX1xgbIprpz6T/arZ7nQA+AF3acO7MoUGqv9Bid5ZDdTpe4GnhQQxgKAO60fDtdi+u+/6TYrsPFlNZYgBa7cb35+B62Zv9Lv+id7DU/lUYuFCGdJqFMdOadCbpTcXY7I4AdGnB+WTJSnTfc+hbf5sB8eTrOAxYKGMSc8oDLI6hfjw2ZRb1xQaxOwDQxQ/mujw3lXRDRQz0SS5ej3Le7sI/YsBCGZTY5Lmr5fEk1nHEpq+LEtoWIB8KQBcvnFtxskjUDRSB8xNdVssS0yM5+e3eIagc9YareWHxlEyaxuF2UQlj5wDQxQdnsW3WeyE37GfSfTlvI8i6jo+hIWc8YZBCWde/ZHMENMeaKNh0Ys7bjTus/ZtMFvgBaLs3a3BICcS3SH8SKd0pHYNYib7DYYf/ktNnf8LghyxqBsf3u/B9WUpjb2ue1lweaP8x1ZwFANr+zTnbl6H3Lf9y7lKA4xjncOHlWlJL0v0ACmRZX/DUYKWjZKqjUhyDDUjDSAt87S+2PScOQMvfjH/yTVjAURONC3QsBzhK4xbz6VtyG0MAE8iRJnIfa0u6xbLvVWFVHVMYk5vzetPn/CPUF4BO7+K355KHYleS7gU+li0c7DAhtv0ZEphv+xAggRwWx+/m62+7kl6x6F/UPm9XoPFZnxPO5qX5NJ91QG9dDCme/Gr4nsWO/B0nyjQItHMlIAI51r2BPlfH8rSHqIG+QYHHq8gqbgZAZ8A43voxiwPkn2EZjGKKgyNRABHItXYP6X82pz1uBTkA6LQAfa3FQuS7xUSGPAlwQCnp5ajQOIvTHmNBDwDaNZxHWuion3EcZ+2YdoYDGlDKGhHTH21Me4jF9EGgCADtCs79JGt8xC3IXJU0F8bz258DGFDK+kSU503om6bTHgLwm4MmALRtOHfiJ1/djvmgbMfkdFYAAyqE/iLZR02mPRaXZBIJAF20cG4sUawlSu+obNPDxZbWAhSQQoEim/5+kC3faTjt8WBZFtwHoFOHs1ism6PRAb/ldPP6Cm3VtRyDCpW/RDbtM5Z93qE4RnSnPSaCMAC0KaAvVOx0a7mzbqTR1hgHT0OzALGy1iOcWWu7FswuGv1XZ9rjOFAGgNaF81DFzibqTO+o2dbvLGcligWfnUizAbGyloiMaJezszGyXwt1NrHQmPYQtdN3BpkBaNWOtg1n98l0so9Jx5rsymIZpM9zSnxzbB6QCZ3u60fHGkYaWSl2pDjt8amtreYA6GzAuU3O21Je5tf/sqTQJIn29rGcldiA/Y4EvDKh5wP9qS+XqDX1+5Goc27Yt2WnPV4wbQuAzgac6wdKFkZpro1Shjx/+K6lV92zA74XAF6ZUffAve/O4Wymfs+z0Merpz2+SWhrZs7i3qAAdHkC+kaJLX32ttjeBAuDSHT8wQG/nQGtTOmCkL4l6og/YaGIV3tLfX0j0u0J7Y0DoAHoqA5UmZABNdrm1ln8lGM6RyyevnuG+D4P0MqUFse8Ed5s6PsWy+NMTMG8GvMmuD8ADUAHO82AiMpxosNMJbV20ObDFor6t4zw/TagVRJay+GQNnxtH9PXxhke43aW+35dfuD5JiKHoCcADUBXd5auERlZYg53G0dtHm44GP8WlYnF4XWAX+noT5b8TEroc4fyLic6vuc7GgdR0x6i1norADrjgKZO0JT0n0DnEDuYHOGwzWYcmqdbcOnEBP/XWYTHt1yKEiB1pz1IUyzFvtdO6Bs7kpZp+h/qcEyETXs8mrl0cAB6vU5RO+dtEe/PvJvgOtyH/E82KFPaJ8F3Pd6HzVYSxL68MAqQulMlzxU/Z8HXAIn+Jwp/vabh+z2V0gWWpj2uBaCzC+hLfR3hLtkiMYZt9s55u3WrDg4RS9pJwv8BlsHR2NGmuNBvmsL3roPB0221piu8xT2oMx2TwhgJTnucBEBnDNAiS4pv/qKw7X4cPrHrPCWJYk2NJNuwlZF4LfvrA4A613zf/dtd8we8Witk9//j+OQpGv7bpDReqqc9Vie9OQLQ5QXn7TlL6pQ057iorZN14ltlg/dFjV3STxaAcX/1deFXTkDUrb4I3MczDP0drNgvRym+Jd2Q4pipnvZ4R+YNEoAufTi35lXzlim3K9LHlysmCBycwg9AUOKNoqnP5+0AaCpqE7iXJlUI52j0z8GklZL+xRP+limPn434h6shAF3egK5VoHZnKAwwUQekl0YbTxlC4tPgPLylBcJyrHG9zHCHnRqRHIHr3jgkukilzGxzzfWRjyTbeDhL4xeALu/57n4Kg2uBzhwffaeLISBWBRMdLC4Q9itDQIsf0RNsLsiG3NNNec5Xx99wzb4qqiC+JNnGvhjdAHSpw7mewpPQjbphTPS98w0zxYaG+LSxQDiLfZXjE3RtrsJmLZIj5B4cqFvI36DPNiLdK9HGWzZLH8AA6EIA+myJjv5z2BOUYjvvmGybFOFztIWn8k0sAvoHjsU18fGypT0fV/B57Wrp3BbE3NtLdAv5G/Qn8eNzpc6TPwyALhU4dyR9L7Hp5wDDdnY2AMNNMX5NFwgv9PmyATGxcHaP6a7VpIcsHMsq37n904K/5TH3oY7mMZ9uoQ+PjKhR4++/LTHaAehSBPT/SZQutVFTWjdN+DExBRPj12SB8EP/irslQIvX/SsMfRxJOsTG8fjOrYPC7jtxahdzL1qRPjAp5G/Qv/ZKmAu/GqMdgC41OO+fMHj+5Q9nM5zj1tk9QxRzbxHj13SB8PCAP+MnTJGAIeqQGPrZmq+ZjQiMOr7zO9d1mjb9fVuNynfdLfXnHqT3Y+rDbIZRD0CXCpwbJTztXJ5U1EahrYN0EiOSntwNFwgXhPgzhdc09rO7gY+fq98YJOdXk9TCd34NYgAmq9ES9/t400L+Bn1NxPI/HbXDEEY+AF0qgL4sZtHsKMttzVEcsCLTsK+EX90FwjVhJVptxQnzdIKujzd8x7OZhWNqGTjHIYb+pjqY0lpsub+Jt5g7dAs1wQDoQsO5Z8SuyktJO1huSye1+2hJ37fbhIwhuJb63zgkFl6jdFfgmOYbHlfnkPN81MDfk5L3RrXy3faW+12tiK3aFtl6MwSgAWgXcBYd9/GQjrvQJOQppj3V1O4JCr51Fgi/jtp5xhCEEwO+XrWxbx/997EOAL2lQbGj5Qr3R6Xy3SRH/f2YkAeEkSABAF2sgA4b8LfJVhfTaE8ltfsOhaJLuguEp8f4NAHhtgFfuqF2QwN+GijWRwmqV8S5XusikiOkHdnKd5+4erLlinNfBhJ4moIGAHSxwblFIDJgjcvauYqp3U+r/EhoLhC+EZdVZgCst0J86YbabWoZpr0jzrWlZmSN8jyuQuW7AQ77YleOCvp1ERxEAKCLDdDXB2rm/t5xe7Kp3e+r1vbQXCDcJ8GnLgTHh/jSCbX7May0LIfd6R5b35jzPdVVJEdIWzKV76Y77o8tOa6+OuOzM6gAQBcLnHf0pQ+L3bR7pNCmTGr3Cp1j0ciMu0/Cpy4Eu0W82iuneMcc20IbFegCPutozpVP1bhfMpXvVriaavMdh1i8nB62IAsDoAsFZzEQX6wuwRiX/GGxTZnUbhFJspem/8WKYXvdHAF6YYQvnVC722OOTTf5Zd+Ec97DVSRHSFsyle8OTmlMnMNTfLuBEAB0oQF9WnW6a1q7s0jGwY7U9N1UsZjQFZJ+dQA4Ksafamr1OQlPoCs1jm+IxHnPdhXJEdJWUuW7OSmOi6EcxlgLlACgCwXndqTPRV3gFNuUSe2+0sB/fwWYfCK7Yq+Z8NI2xp/qJgCDE45vmmk6e4TfThrp2SZV6C6xXcjf4Fh20H2LA6ABaBsdcJIoN5lym0mp3feahFTRd8cqgOR4Bb+q8Hsowd8c05jlEJg4KYpPn7vIZSRHyJTbQ7YL+Zs8UIAUAHQh4NyyutZxyu3Ggekl2d2/Y/zPlJ0fVnl91YDfcQn+LlXw9a3MsXImnMoxniR57o0UtpLSiuQItBdX+e4RjF4AGuYGznGp3QIA7S20IbtAuLOiX9XC/E0T/J1gutgY4vM0xeMco3D+R7qM5AhpL6rynVEhfxgADYsedFGp3SujkiYU/csuEM7Q8K1dMyPCn8o+h9Mlj7EFF7SS9XuGwvmLMgBPuozkCGnzeFeF/GEANKzmgHsq4olosCX/MguEK3We1BUBfZCEv3aOnnRVikRNULwGvSV/AJdb7DNTXBXyhwHQsN8GWhcX85WBNsaahKtZAvRy2YQKhdC4gQrH2c8VoNn/jZK+21u6p1GV77pjVAHQMHvwPF92J2iDNpIWCN/TzUZTLcwv6fMVF2FrCvPw12hchzYSCSVKPyoSbYZVvrsAowqAhtkbZMHU7irbiTESYDrIwLdx+nSIzzkupgvoO2dKHutkzWsxxua0jGSbwcp3izGqAGiYncEVTO1+jdTMchtJC4QPG/pXLswv4VMm1G6BxrG2jth0wUoBIlH1T1Tp091t3eAenOGykD8MgM4qoKcE6u12ctBG3AKhePLaIgVAT1T0KRNqN0XzeGe7iGbx+R+U4PsZR31plutC/jAAOktw9qd2ixCwHR21M9b2q7wGoLdV9CmzoPdHzePdW8L3bMNrcl9c9TlH99lf+c5ZIX8YAJ0VQPtTuw912M7MmB3AW6YA6Lc0fMqE2vXXPN7aErt0zzW8Jt0T9pTs4Ohe+yvfYaNXABpmMJiqF8LOddxO1ALhHyz5Vy7ML+k3KdSulcExj0/wXWXhulyRRiRHSLsHplHIHwZAlzOcq1O7b3HcTtQC4SJbkSI6hfkl/caF2n1ieMy/S9jzb76la/9pGpEcIW1fkkYhfxgAXa6AFqndT4hkA8ft9Lc5PaAB6IUGfuNC7XIWjvtfcXs9Wro2x6cVyRFot7ry3cEYbQA0TH0ATbcx/yvRzlidehgWAT3KwO+ljhc3D4jxv8jStakVse3WMync+1Ym9cNhAHRW4dxE97Vfo62ZIdXkOlluQ6swv4TfuFC7EZaeMj+O8P+axeuzc1qRHCFt90hrNyAYAA1TH6DvmtaYMAD0Q4Z++8T43sXSsUftUrLE8jWakVYkBwyAhpUGnJuH1JVu5KAdrcL8En7bxPhuYunYO0csotoGdPuQqJSB6KUANACdXUAPCADhCEftaBXml/T9TQrwfCSkja8dXKdz0ozkgAHQsOIG9Fn+QvGudmHWLcwv6fulEN/3Wz7+Q9OYIxYhb1w1MJVIDhgADStuQFfXZlhrY1cWRUAfZPkc/LrC8vHX5x3c11vgdHStDkgzkgMGQMOKF9DVC4Q3Om5HuzC/hO9LbM9tR7QzMdiOw+v1cJqRHDAAGlZ8cK5eIBTZZG1SBvQ0i77DEj16OziHzUPaaeToevUk/YxIDgAagM4uoAektRBlUphfwnefkNjqBo7OI7jxawuH12wyIjkAaAA6u4A+iwvH10sZ0EttlrkMCbV72+F5DDPZTkuxrRY8741IDgAagM4goMXi2qCU2tIuzC/p3x9qd6/D82gQ2FOws+Pr9gfXxbJgADSsOAF9dYptaRfml/TvD7W72PG5XOdra1PHbYm61DegtwLQAHS24LxBWrU+AoB+y5F/f6jdYY7PpZfLxciQ9rZGjwWgAWhYGoAe78i/P9RuyxTO59/YeBUGQMPKDdDdHPmvDrVbndKi50m2o1FgMAAaVkhAL3Tov4/tEqAJ7TXlwkYANAyAhpUFoEc59F8dandniud0E2kI7i4MgIaVOqCNCvNLtiFC7c5L8Zx2AqBhADSsHAD9UAptvJQ2MKm9rXB3YQA0rNQBfXwKbcxMM3QQBgOgYeUC6CYptHGOzRRyGAyAhsHsAboHrgIMgIbBYDAYAA2DwWAANAANg8FgADQMBoPBAGgYDAYDoGEwGAwGQMNgMBgAjasFg8FgADQMBoPBAGgYDAYDoGEwGAwGQMNgMBgADYPBYDAAGgaDwQBoABoGg8EAaBgMBoMB0DAYDAZAw2AwGAyAhsFgMAAagFa8qJuQDiGdTfo7aQZpNv/zRtIE0gjSLqSGuGCZ6hvNSHuTTiNdyX1iFul20i2kv5IqSYNIbSy3LfrjkghtbOj7KdKKCH1o6fjrk3YmjeJxNZfbXcR6jvQg6SbSBaQjSFuR6gLQyQ3VJnWO0YaOBkNcm/UttVOLtDtpCumj0AsarV+4Y4kO1cPwOOrGnGstB9c32EYr399aJFx7m2pb5IOsK2k86QXSWsX+8V+G0T75MWR2HBNi2uls6HtRjO8VBn4bko5iGK9UvHbV+oG0gPQX/nHcIKHNthb7ZsdSAXS3hIu42LgD1mxzXkKbAy0AUVzANzU7TpgErA/TuhZeh4jye7ED8ATbmCwJA9ua62v36ZinxKA+YLA8S/oH6ULSUFJrS9dHvCHdrwHlKC0lnZf/8St3QHuQvIz0tYP+8lhC23MttrWiVAD9e4mTGWoRHltKtFdp4H8v0tsOofOG8g9IPKCFRmYA0Ess+FtDypEO1Hrz8Ka4/s/h+Yppg7NI9coO0JVVdXgq5huH128+AF2zoVESJ/O8RXjcLtHeNZrzYH9XuEEr8+dVWTWH5xuF7ia9wtMbSd8X59HUEqAFePZPCdDjYuYkg4o63m8lvz/TMqD9Eq/GnRSuyRF83LLTW/8hPeDrGzN5XlUGUK+Tti4bQHv99zmFe/Oj7y3oP3zvv5B4YzEB9FqFfm0+/54ioP8medH3tACOjqTVEm3NU/Tbil+Hk/y+z4Ohd+xURWVVE9KR+VeueH/vkDa1AGihVfmFFteAVvOzwho04gH9NE87iPvSj7Qv6Y+kSQzFqB/MT0mbSaxDXC75gz2d3ygbJjxJ9uEFrx8SIHVkyQO6smp70rKEayd++G4lHR77o+k9RG2Wfxjx5p0X8MOJDUAvKddFwgckAf2QhZO6RrKtxYpwfj3B3/9IwzTnj/vztEaUb/Fk0MsCoKt9dc8goOcmfHdDfr0Om/dcFBsN4C0Qx13znzhCo4XGOXXgSI84/38sWUB7kRZxc82fkcaQGhscX2v28R4AHd7QYoVXl94G7YhB9p1kO6vzTyrJPjfgp684X//MR42YXaMGpNti2vic1MUCoNdxR20DQIf62JhfmYPfPyri8+clXOs38xAyH6zHJbwZDis5QHvRPnH3bNZ60UHm17AeaTAAXfN1LaxjPRlxEe40aOsCxTnGLhI+r0rwcbHlmzI5pq1X8iA3B/Q6DvtqBECH+ukeMuVxd8jndg+8Pgclpk6aW+wbA2Mg/WPsw01xAvofMd8bX1EIyyCgu0Sc7IiIJ5Vf8rGj6u00In0Z0dY3WqF2lVU7JCw6/N3BTamVEAVwqSKgf4q5Lg9KvUVkDdCer4djp8S8uc53EyJxmqc2aD29GjkVU2yA9uado74zsaJQlkFAD4w42b3yoV/hf7teo524SJE/aYXaxS/gvaoc6qQ2VfNFzJNSRwVAr+AFp6jFppsA6FBfN9VIGpHvb6utTGtEH9s9MW3/oUQAHZWnsFD7oQGA1mqkMuJkN+VMoa8isn/aKrRRNx/SEt5OFa/qqoXaeYsXcVMEezi+OWNi2r5aCdDe3w+NeRu4MAOAfkjR10M1puTWf8uJe3qe7LhvdI+JOnkvdKG6mADtPYD8HPH57SsKaRkEdFRUxQb898uUXuXD2zg25qLuza+ja5VC7UT70T5fSuHmNCV9H9H+lzWeMpIA7X1mbMw5jShzQM9XBGAQIBN8f98xIVa2Uwr9476YY9i9yAE9IuKzj1YU2jII6LBXmWW+v3eI+DVdkY8VlpuzfS3igi7yfe4jpVA7bxEt6kadl9INihuEuyoD2vvctTGJE/tmHtDhURxfrfdGFx+58UJBB6+nK4sc0FOtPCSkD+iPOPIkTs1LDdBhIXb/Dnzmjsi542T/+8Vc0GN9n1ugFGoX/fTqzZ+n01nOjzmGUZqArhMD/u+kXzHLDdBerOy4kJjc1fnqcut/dmZMO9el1Dfiyhk8XuSAjsoY7FbkgHaf3p0qoKND7O4OfG7niJP9OLHqXHS43tL1FvG8LCS5UDvvlzDuJmyeUmc5QXoeWhbQ3mcb5X8koxMDupYhoBfl1w28yBzxz4NIozms8dmIcLklEdMF82PaGZdS32gZm81a3IB+P2LxuxYAnS6guygsckX9qp4Y43/XmAt1VuCzF0iH2iUDunNKnSXuNXa6NqC9z7eNGCjV6eVtygzQKnoxHw0R9XAQD+gxKfWNuD76VZEDennoA1UxWMYAPVC6E3t1KdRKkUa/qq+sMRcUvZBYqQHonil1lhHOAO19Z/OIKJp1/FTZqIwAvVyi+NDJknVP4gD955T6RquYY/iyyAG9IvRt2d216i097ZUxQFdKlxb1QuWWKnx+i5iwsUkhn99NOtQuGdB7pzQIxzuZ4lj/e3359TI8djh6jr704qDjqxyuDp3OUAf031PqG1uV8BTHhxEJVXUcXavNLAF6BV/HOI0rJUBfoxTr6C3SyJUijZ5T/iU0zKmyqp1SVTuv8ts67cVLOzdoTswxjLYCaO+7h8e0c0MZAbpJQvzyF1LtRi9qe1Xz0ukbR5fwIuGiVNd2oseGKqCXpDzd4hzQUdlCbSI+v2EMGPf0fW6TmJoEd8QczyrpULvKqpdjblQuhZtTNyabcF2+ZKYtQHvfP1sprLBUMwkrq7bjp7Woz72WGN4ZX/NldX4Bz33/uCXmGCYVOaBnWd9EA4DWamBxaJZg/HduTMwEE6/30Rdxhxjf/5EOtRP1AOKL33d0fHMOSHjVqmsV0J6P62PaPK4sAO19bmzCFNa9sREFXup83PdPc9w3miQU9R9Y5IAen+rbBwAd6jwqxG5xwve2iC1F6oUXRZUUfSLB978UQu12ShiE0xzfnLgSpzcqdELVLYfmxTwZ7lMmgK7FhaL0qhR61+l/CQkNDRz2jTNj2v44tEZM9PRhIQAdN7Z2AaDTAXRUiN0jEt99JLIUafzCWVKt178pVbUTKd3xKb27OroxxyS029MJoD0/jTjMLGpXi21LHtDeZ9uQPkmA9GExbZ2f8N3LHfWN9glPz+MivndSEQG6dswOKk9Zj4cGoEOdD5QKDwv/7n4xC4BRuy+8lXhjK6tOV5r78ra7T9pFpZ3lm9I9YYeJaYqdUGdX5Y14v7eoLaA6l0U1O69Oy9qELcK2jWirKSf1xP2QHmi5b9TLLwBGt/lh5FZaXoKOK0C/pVHN7qKY75xh+bp1AKBrOo8KsbtA4ru1NHbNPknC74EaVe1mS8TP/s7SDdmYq5HF/SC0cg5oz1/PhB/D8ig3mryX4If5H6zw7x4tsQfkIEt9o05Civm6/F6H0d+vHfPG0NPw2L7UAPRGMeUUfrZ23by2WgDQNZ1HhdgNNwR8VHpyAwmfWylvIOvNeb+f0P7H+X0FzW5G7wTA/JCP5VZ/jVthcEz9JTfgLWVA15PYTfrpmKzCWyV2U/+T1l6Vv7XRTCKB4iIJP+dbDxutrOqhnbgRPy++Sql4FwCt7DxqsWmA5PebJLzqq2+P482vrtNYuNw8IeSt+pX2xvwcodp1qs8d9YeE0K2DNOfZVhh2kqPKGtC/rZd8k3B+02Pu36MS1+c5rTUL8SSZ/IAwVWre1puWWRqx41B3zft3qwGg6+VzHKK/K6Y0zzVOYAGgQ51H7VLdXcHHVRIdf1W+Epm8z2VaG8h60SVLJTejvS3/uhn3VO8lzpwZUQY1OHj2MVgIWWGho4wra0B73z1C4hxHx/zw3y/5Q/ZUvr5MXK0TbyOLQyIqMNZcjFRZVPP2UVwdsSnxYdJP+iIZrLLqZuPUZxGumjyuXomdvkk+1g0B6JrzXT/FFuqXX339JeHmTVE8tmcNNpBtl5DmG1ah69n801dl1V/yO5d4nXpRwuKUv2jPZoYr1SssdZapZQ1o7/s3S0xX7B0zR3yZ4rrJm5y08VeefvgbLwKukvju8vwuOXrX/JiYcfUR99exDIhq/dHXf1+U7L+ymaxb8Q9Ekq+3OEmof41kIO9pvDWnde/NUSuX8d6SK1KsxZGkMcUA6E4RB7dMozPdnTCtsKmiv39qbSC7/kA8nUPOXN3Eb/Ir2Sp7HroHdJ2E2OFyAHTjhIiEajBuGuOjH4PX5SCfoTyVVvM495GYtrOhFQr991VF32slHuDWKdUIzwig95KuqZHsq19sxpe6v4utpJl6v9ZXSMxdqmgZx3m31Dgvt4D+bV3g5bIFtOdjm5jiUf4nuWYxPury4HrbYt/4iafOtrJ4Pzdin2sLDmjveBpwBu+aFH44Mg3oUyIObrZmR4pKGOmj4esE5VC75IXHYZwerPNU/V9eXBxktBiSBqC9dtpHVCMrn12943fsrtb9EusWtfh1/AbNWtVfc786yepWSjWPsydvXPCJ4vG9m6/7EX9uOnH4WzEo1wLQbgA9mG94UIdodqABIb4u0PTVI+LYhlvo6HV5KyIRH3sOd95gO+dzMfgBSjuXJ7fdKuK8LncwoLcIaedgTV+XRxx3Kw1fTzMswjRNwU8tjjlekqDTFI9vY47FH81vX8Fzvox/HIZwwlLtijTNO2/Rf4/n2h3+Y7uCC2oN54XGNoEHMvvlN73oqaskFtLXKa4LvcnTdWND2jwxoj/a0u6FBzQMBoPZ/fHowRsqTMkXTvMiO97nH8rXeeH9Gf7bbP7cefwwdFC+xofpvH365wxAw2AwGAANg8FgMAAaBoPBAGgYDAaDAdAwGAwGQAPQMBgMBkDDYDAYDICGwWAwABoGg8FgADQMBoMB0AA0DAaDAdAwGAwGA6BhMBgMgIbBYDAYAA2DwWAANAwGg8GKBNAQBEFQMQgXAYIgCICGIAiCAGgIgqDyAPR8CIIgqAgFg8FgMBgMBoPBYDAYDAaDwWAwGAwGg8FgMBgMBoPBYDAYDAaDwWAlaZVV3UhDWH0N/PSw4qem3wE+vweSalk838EGftr7/AyJ+dye633OjvpqHG8d0s6kE0l/Jd1AmkG6mXQ16QzSQFLDAvXDnSXOexBpD1JvUgdL7ba2em/SvWZ1STuRjiedR7qUdCVpAulkvlYNNX234utsR/LtNg9c00aKxz0kwIs6Guc+mL+/neX+K6tufsdjfOmF8w06ywQrftb3uQNpbSAF8ghDn/7zXWHgZ8j6aZmRn1vkIA10vsJxbkKaTPpK0vcPpFtJnVOGzVyN6/At6RnS+Px56rW7h9303FSu1Zak2/P9V+5+3kHqqdjG8IJcFw/o/u92VjzuYNuTNK5v9XWd4bj/RmlMqQD66ZCDf59UH4CWOsZjSCt931vLxzODn7Ym8D//wdfV38bXpL2KHNB+reY3g/plC2jx9lhZdQFpja9N8e8vk+4iTSPdSLqH9E7g2H4iHZtBQAsNA6BtA7qy6jCfvydJ9/r++8wSAnRTUosE3eHzdYPE55tIHN+gwE0Xg7aLxHTSO+tdH/Gqmz6gx8QAqgVPpx1Euo70RY0fL5XX4pqAHl7E05HjfMf5C/+4to75/DakxwPf2VoT0EfmYamr9AH9ke+H7EfSjikCeonNm158gK6sakD6wPfUt33+Fc3rYNVPd61KAtByvmb4fE22dF+f8/nMSc/dV1a1Iy33ffe0ogF09JzltMCgvk/hfEsD0GIu2ev31cc5VvJ79UnP+r43VRPQe6R0nrYALfrT6b7//jjftwFoK4A+1+drhu//3+z7/9cA0LE+v/f5PFbxuxfyVMii/L0oZkD/9v2JgYF9dJkBOgiuJgrfHcrQEarKDKBrMuM5qSkwADrWz0a8+LOOIdPB97eOvOhRPefYDYCWAvSoimI3c0DXI73l87GozAC9Q+A4Wzlur1wAXT+wljUdgDbzc5PPz4Uhf5/k+/tsADrSZ1Vgwe/w/NRRuQLa81EZGNxdywjQjQI/uv+SfmXPMqB/e+j7UHrarogBvYxhoaNFxoD2bk51WN3S0MUeL27VH160KwAd6lMsEK0KdPafecVfLEpelJ/68OJoNywTQPcMnO9QDUDP5YcNVY1L4RqdFzhWMVbe4Cic80mH8n1v7ADQf+exo6pjCg7o3/x+7xsHezoE9ArNPjQhvwAeA6z043TXPxb/ivNxMZ873/e5Z5SSV7IC6N865UuS92w5R8tM5giJhiUI6EaBczpVA9C6WpHCNRJRLGf7pvnitJQXh8Xc/P7K99NemN2iogC097dDfH//MtJ3YcPshsQDS3+LliVGgF4feC/GQlcskHhP+9WfPxSAjh3U/UiXkx4jfSLZUb4h/SVxUcUDelSfmJUyoOsEzuFkDUB/5FsgVdFTEsCLGz8qi37t8lEclVX3c3SC7P2cKN1OTUAv4zGuqgeLBtA1p2JfDX3bMAf0as0+tKjmk30xzEF7E/nv+b7fV+I7p/k+/1/pBIXKqtFWwLr+r3HxAjq8PRGatgtPcYi3kdv4TeSbkIE9N8HX/BgoLEkZ0O0C7R9QNHPQ64+PMLUy8C1iw/twGv9f8j+M3lTWdyHtPJdfUM3SHHTNB5a7fZ+bU+NhEIuENb47NvBLLzPnfUfgRp6u+WTQWPN8R5YsoOOftncKxM2uyz+Blwaghwba36yEAN3ZQZvijWLbAJCETsgsoL3PNCa94vvseAA6+nttJGsKJOmr/JNEcnv7B763k+b5XrNe28UE6MqqZr4sro01vt80kKxydsKA2iNCu6QM6Dk+H4slv5MWoDvHXKc9nEbYeD+8/h/SaZkGtPe5TqTPfIutBwLQ4d+7wfe9ZzWiRz7wff8qifY2CXSAKzWfTPy1K54uMkD7B9f3+apn6j7eUM5aMztm0zjovQL39ZSiArT59fFnS95q+EBxc+YB7X22L88XVxfe2gKAXv87WwbStzfUaHdQoCBMF4nv+F/hf8ynkqu1eYnW9Ep6gN4xcHwjFb+/ue++CO1T1ICurNqNV+Wrv/9v6R+l0gH0WYGIm5aKDxT+MNhzAOhfP3+i7zvv5q8rAP3rdx42fq31/Dzm8zNL4vM7+H45q389RyWGInmvRdNrhBGZvp66iYN+wedzVT5sUSYc0at78t/A+dUuOkB7r+1bcRTJ6vUGh8q0TukAemN+APEXENtI4nuirs0tvu99l69lDkD7vzPZ972HfZnMGQa0VxS7+vNvS60sx0NFbV7Zm4v+NmQeeyZHiBySf3L0qniN5xv3S+DzL0p19sIAevOQkLrX+T4dxItHPXlADMxXCKysejTw+fe00unNAf06/3eY5vMCz/ch6xBPKd+PmoBebBBqOt8p4IML0x5sp+SjVcSC6G/VDrvyPb2C9GngDfMgjWmydZwuPddABxQxoOtwzHiwP+kC+kfDPnR/YQHt7QSx2Pf5/S103lnrDVS573RiOK5WXJD8lIFWz9LAc5Wo0o59/6J4fsu5lGWzFJ8QTQL9X2ag1NZo1249aDEO3F6nAwMhqbLK5X+U5dsZbvm6jClaQHvfaxlSQ3tGSv03JunJe0qsXnAbZ9Bxhkj78aYYqj97maWO2y2weNhV4bsikmQE71LxaiCC4RfOylqQX4T0rlddy4PuJN9xH+1gULfjubYZHAe7hOsor+B/FwuC83i7pH0Lsu2VF58usyg8lY/zPK4v0tmw3R4G5Q3CNCSFayUecPYjXU9ayPdyTWDKbjHX6zjn18UvtTZ+b/gUGNShku12DFzP1hoPOzPy/cm8L5zkoP/K6Hrh8v8BXVonpzM3M8sAAAAASUVORK5CYII=;" vertex="1" parent="1">
          <mxGeometry x="10" y="5" width="102.27" height="125" as="geometry" />
        </mxCell>
        <mxCell id="b-3q3k0F2Zf3cZ1a5pTI-1" value="🔚Courriers Clôturés" style="rounded=0;whiteSpace=wrap;html=1;" vertex="1" parent="1">
          <mxGeometry x="260" y="890" width="200" height="60" as="geometry" />
        </mxCell>
      </root>
    </mxGraphModel>
  </diagram>
</mxfile>
